<svg width="32" height="32" viewBox="0 0 32 32" fill="none" xmlns="http://www.w3.org/2000/svg">
<path fill-rule="evenodd" clip-rule="evenodd" d="M15.606 0.830855C15.8575 0.723048 16.1423 0.723048 16.3938 0.830855L27.4771 5.58086C27.9848 5.79841 28.2199 6.38629 28.0024 6.89392C27.7848 7.40155 27.1969 7.6367 26.6893 7.41915L15.9999 2.83797L5.31048 7.41915C4.80285 7.6367 4.21497 7.40155 3.99741 6.89392C3.77986 6.38629 4.01501 5.79841 4.52264 5.58086L15.606 0.830855ZM1.75 11.8333C1.19772 11.8333 0.75 12.281 0.75 12.8333C0.75 13.3856 1.19772 13.8333 1.75 13.8333H2.33344V29.25H1.75C1.19772 29.25 0.75 29.6977 0.75 30.25C0.75 30.8023 1.19772 31.25 1.75 31.25H30.25C30.8023 31.25 31.25 30.8023 31.25 30.25C31.25 29.6977 30.8023 29.25 30.25 29.25H29.6666V13.8333H30.25C30.8023 13.8333 31.25 13.3856 31.25 12.8333C31.25 12.281 30.8023 11.8333 30.25 11.8333H28.6666H3.33344H1.75ZM27.6666 13.8333V29.25H4.33344V13.8333H27.6666ZM10.6666 19.1667C10.6666 18.6144 10.2188 18.1667 9.66656 18.1667C9.11427 18.1667 8.66656 18.6144 8.66656 19.1667V23.9167C8.66656 24.469 9.11427 24.9167 9.66656 24.9167C10.2188 24.9167 10.6666 24.469 10.6666 23.9167V19.1667ZM16 18.1667C16.5523 18.1667 17 18.6144 17 19.1667V23.9167C17 24.469 16.5523 24.9167 16 24.9167C15.4477 24.9167 15 24.469 15 23.9167V19.1667C15 18.6144 15.4477 18.1667 16 18.1667ZM23.3334 19.1667C23.3334 18.6144 22.8857 18.1667 22.3334 18.1667C21.7812 18.1667 21.3334 18.6144 21.3334 19.1667V23.9167C21.3334 24.469 21.7812 24.9167 22.3334 24.9167C22.8857 24.9167 23.3334 24.469 23.3334 23.9167V19.1667Z" fill="url(#paint0_linear)"/>
<defs>
<linearGradient id="paint0_linear" x1="-0.393751" y1="-0.0124994" x2="31.25" y2="32.775" gradientUnits="userSpaceOnUse">
<stop stop-color="#0FF3AD"/>
<stop offset="0.649439" stop-color="#16AAFE"/>
<stop offset="1" stop-color="#365CFE"/>
</linearGradient>
</defs>
</svg>
