<svg width="276" height="286" viewBox="0 0 276 286" fill="none" xmlns="http://www.w3.org/2000/svg">
<path d="M129.503 284.753C129.308 284.949 129.308 285.265 129.503 285.461C129.698 285.656 130.015 285.656 130.21 285.461L129.503 284.753ZM132.933 282.641C133.122 282.439 133.111 282.123 132.909 281.934C132.707 281.746 132.391 281.756 132.202 281.958L132.933 282.641ZM137.386 276.046C137.21 276.259 137.24 276.574 137.453 276.75C137.666 276.925 137.981 276.895 138.157 276.682L137.386 276.046ZM143.033 270.44C143.197 270.218 143.15 269.904 142.928 269.74C142.707 269.576 142.393 269.623 142.229 269.845L143.033 270.44ZM146.758 263.411C146.605 263.641 146.666 263.951 146.895 264.105C147.125 264.259 147.435 264.198 147.589 263.968L146.758 263.411ZM151.847 257.31C151.991 257.074 151.917 256.766 151.681 256.622C151.445 256.478 151.138 256.553 150.994 256.789L151.847 257.31ZM154.957 249.998C154.822 250.239 154.909 250.544 155.15 250.678C155.391 250.813 155.695 250.726 155.83 250.485L154.957 249.998ZM159.55 243.518C159.675 243.272 159.578 242.971 159.332 242.845C159.086 242.72 158.785 242.817 158.659 243.063L159.55 243.518ZM162.111 236.003C161.994 236.253 162.102 236.551 162.352 236.668C162.602 236.785 162.9 236.677 163.017 236.427L162.111 236.003ZM166.24 229.222C166.348 228.968 166.23 228.674 165.977 228.566C165.723 228.457 165.429 228.575 165.32 228.829L166.24 229.222ZM168.292 221.551C168.192 221.808 168.319 222.098 168.577 222.198C168.834 222.299 169.124 222.171 169.224 221.914L168.292 221.551ZM171.973 214.513C172.065 214.252 171.929 213.967 171.669 213.875C171.408 213.783 171.123 213.919 171.031 214.179L171.973 214.513ZM173.536 206.723C173.452 206.986 173.598 207.267 173.861 207.351C174.124 207.435 174.405 207.29 174.489 207.026L173.536 206.723ZM176.771 199.463C176.847 199.198 176.693 198.921 176.428 198.845C176.162 198.77 175.885 198.924 175.81 199.189L176.771 199.463ZM177.85 191.586C177.782 191.854 177.945 192.126 178.212 192.193C178.48 192.261 178.752 192.098 178.819 191.83L177.85 191.586ZM180.631 184.136C180.69 183.866 180.519 183.6 180.25 183.54C179.98 183.481 179.713 183.652 179.654 183.922L180.631 184.136ZM181.218 176.217C181.167 176.488 181.346 176.749 181.618 176.8C181.889 176.851 182.15 176.672 182.201 176.4L181.218 176.217ZM183.529 168.62C183.571 168.347 183.384 168.092 183.111 168.05C182.838 168.007 182.583 168.194 182.541 168.467L183.529 168.62ZM183.619 160.677C183.585 160.951 183.78 161.2 184.055 161.234C184.329 161.267 184.578 161.072 184.612 160.798L183.619 160.677ZM185.444 152.942C185.468 152.667 185.265 152.424 184.99 152.399C184.715 152.375 184.472 152.578 184.448 152.853L185.444 152.942ZM185.022 145.003C185.007 145.279 185.217 145.515 185.493 145.531C185.769 145.546 186.005 145.336 186.021 145.06L185.022 145.003ZM186.337 137.167C186.343 136.89 186.125 136.661 185.848 136.655C185.572 136.649 185.343 136.867 185.337 137.143L186.337 137.167ZM185.387 129.284C185.39 129.56 185.616 129.781 185.892 129.778C186.168 129.775 186.39 129.549 186.387 129.273L185.387 129.284ZM186.166 121.378C186.154 121.103 185.92 120.889 185.644 120.902C185.368 120.914 185.155 121.148 185.167 121.424L186.166 121.378ZM184.672 113.574C184.694 113.849 184.936 114.054 185.211 114.032C185.486 114.009 185.691 113.768 185.669 113.493L184.672 113.574ZM184.89 105.626C184.857 105.352 184.609 105.156 184.335 105.188C184.06 105.22 183.864 105.469 183.896 105.743L184.89 105.626ZM182.837 97.9545C182.879 98.2274 183.135 98.4144 183.407 98.3721C183.68 98.3298 183.867 98.0743 183.825 97.8015L182.837 97.9545ZM182.471 90.0227C182.418 89.7516 182.156 89.5743 181.885 89.6268C181.614 89.6793 181.437 89.9416 181.489 90.2127L182.471 90.0227ZM179.849 82.5238C179.911 82.7927 180.18 82.9598 180.449 82.8971C180.718 82.8343 180.885 82.5654 180.822 82.2965L179.849 82.5238ZM178.876 74.6336C178.803 74.3673 178.528 74.2108 178.262 74.2839C177.996 74.3571 177.839 74.6323 177.912 74.8985L178.876 74.6336ZM175.681 67.3591C175.764 67.6223 176.045 67.7679 176.309 67.6843C176.572 67.6007 176.717 67.3196 176.634 67.0564L175.681 67.3591ZM174.096 59.5824C174.003 59.3228 173.716 59.1884 173.456 59.2824C173.197 59.3764 173.062 59.663 173.156 59.9227L174.096 59.5824ZM170.335 52.5869C170.439 52.8426 170.731 52.9653 170.986 52.861C171.242 52.7568 171.365 52.4649 171.261 52.2092L170.335 52.5869ZM168.126 44.9462C168.011 44.6949 167.715 44.584 167.464 44.6985C167.212 44.8131 167.101 45.1096 167.216 45.3609L168.126 44.9462ZM163.813 38.2775C163.938 38.5239 164.239 38.6227 164.485 38.4982C164.731 38.3736 164.83 38.0728 164.706 37.8264L163.813 38.2775ZM161.005 30.8579C160.87 30.6167 160.566 30.5301 160.325 30.6646C160.083 30.799 159.997 31.1035 160.131 31.3447L161.005 30.8579ZM156.166 24.5534C156.31 24.789 156.617 24.8633 156.853 24.7193C157.089 24.5753 157.163 24.2675 157.019 24.0319L156.166 24.5534ZM152.754 17.359C152.601 17.1293 152.291 17.0674 152.061 17.2207C151.831 17.3741 151.769 17.6845 151.923 17.9142L152.754 17.359ZM147.443 11.4824C147.605 11.7059 147.918 11.7555 148.142 11.5933C148.365 11.431 148.415 11.1183 148.252 10.8949L147.443 11.4824ZM130.21 285.461C131.12 284.551 132.028 283.61 132.933 282.641L132.202 281.958C131.305 282.92 130.405 283.852 129.503 284.753L130.21 285.461ZM138.157 276.682C139.798 274.694 141.425 272.611 143.033 270.44L142.229 269.845C140.631 272.003 139.015 274.071 137.386 276.046L138.157 276.682ZM147.589 263.968C149.03 261.819 150.45 259.598 151.847 257.31L150.994 256.789C149.604 259.065 148.191 261.274 146.758 263.411L147.589 263.968ZM155.83 250.485C157.095 248.218 158.336 245.895 159.55 243.518L158.659 243.063C157.451 245.429 156.216 247.742 154.957 249.998L155.83 250.485ZM163.017 236.427C164.119 234.069 165.194 231.667 166.24 229.222L165.32 228.829C164.279 231.264 163.209 233.656 162.111 236.003L163.017 236.427ZM169.224 221.914C170.171 219.483 171.089 217.015 171.973 214.513L171.031 214.179C170.149 216.672 169.236 219.13 168.292 221.551L169.224 221.914ZM174.489 207.026C175.283 204.535 176.045 202.013 176.771 199.463L175.81 199.189C175.086 201.729 174.327 204.241 173.536 206.723L174.489 207.026ZM178.819 191.83C179.459 189.289 180.064 186.724 180.631 184.136L179.654 183.922C179.089 186.5 178.487 189.055 177.85 191.586L178.819 191.83ZM182.201 176.4C182.682 173.826 183.125 171.232 183.529 168.62L182.541 168.467C182.139 171.068 181.697 173.652 181.218 176.217L182.201 176.4ZM184.612 160.798C184.93 158.194 185.208 155.574 185.444 152.942L184.448 152.853C184.213 155.474 183.936 158.083 183.619 160.677L184.612 160.798ZM186.021 145.06C186.169 142.439 186.275 139.808 186.337 137.167L185.337 137.143C185.276 139.773 185.17 142.394 185.022 145.003L186.021 145.06ZM186.387 129.273C186.359 126.648 186.286 124.016 186.166 121.378L185.167 121.424C185.286 124.05 185.359 126.67 185.387 129.284L186.387 129.273ZM185.669 113.493C185.457 110.874 185.198 108.251 184.89 105.626L183.896 105.743C184.203 108.356 184.461 110.967 184.672 113.574L185.669 113.493ZM183.825 97.8015C183.423 95.2084 182.973 92.615 182.471 90.0227L181.489 90.2127C181.988 92.7926 182.437 95.3737 182.837 97.9545L183.825 97.8015ZM180.822 82.2965C180.225 79.739 179.577 77.1841 178.876 74.6336L177.912 74.8985C178.61 77.4365 179.254 79.9788 179.849 82.5238L180.822 82.2965ZM176.634 67.0564C175.841 64.559 174.996 62.0672 174.096 59.5824L173.156 59.9227C174.051 62.3948 174.892 64.8741 175.681 67.3591L176.634 67.0564ZM171.261 52.2092C170.269 49.7794 169.225 47.3579 168.126 44.9462L167.216 45.3609C168.31 47.7603 169.349 50.1694 170.335 52.5869L171.261 52.2092ZM164.706 37.8264C163.526 35.4925 162.293 33.1693 161.005 30.8579L160.131 31.3447C161.413 33.6442 162.639 35.9556 163.813 38.2775L164.706 37.8264ZM157.019 24.0319C155.651 21.7945 154.23 19.5698 152.754 17.359L151.923 17.9142C153.391 20.1139 154.805 22.3274 156.166 24.5534L157.019 24.0319ZM148.252 10.8949C147.476 9.82566 146.686 8.76008 145.883 7.69827L145.086 8.30159C145.885 9.35817 146.671 10.4185 147.443 11.4824L148.252 10.8949Z" fill="url(#paint0_linear)"/>
<path d="M141.782 3.43388C141.703 3.16439 142.004 2.94356 142.237 3.10035L152.099 9.73458C152.272 9.85061 152.277 10.1026 152.109 10.2255L145.6 14.9945C145.432 15.1173 145.193 15.0365 145.135 14.8371L141.782 3.43388Z" fill="#10F2D3"/>
<defs>
<linearGradient id="paint0_linear" x1="151.5" y1="8.00001" x2="126" y2="320.5" gradientUnits="userSpaceOnUse">
<stop stop-color="#0FF3D2"/>
<stop offset="0.704231" stop-color="#16AAFE"/>
<stop offset="1" stop-color="#6016FE"/>
</linearGradient>
</defs>
</svg>
