<svg width="31" height="31" viewBox="0 0 31 31" fill="none" xmlns="http://www.w3.org/2000/svg">
<path fill-rule="evenodd" clip-rule="evenodd" d="M15.25 2C7.93223 2 2 7.93223 2 15.25C2 22.5678 7.93223 28.5 15.25 28.5C22.5678 28.5 28.5 22.5678 28.5 15.25C28.5 7.93223 22.5678 2 15.25 2ZM0 15.25C0 6.82766 6.82766 0 15.25 0C23.6723 0 30.5 6.82766 30.5 15.25C30.5 23.6723 23.6723 30.5 15.25 30.5C6.82766 30.5 0 23.6723 0 15.25ZM16.8177 7.91671C17.5668 7.89473 18.3081 8.0752 18.9634 8.43926C19.624 8.80624 20.1723 9.34595 20.5497 10.0006C20.8255 10.4791 20.6612 11.0906 20.1828 11.3664C19.7043 11.6422 19.0928 11.478 18.817 10.9995C18.6207 10.6591 18.3356 10.3784 17.9921 10.1876C17.6486 9.99675 17.2597 9.90292 16.867 9.91614C16.8558 9.91652 16.8446 9.91671 16.8333 9.91671H13.6667C13.092 9.91671 12.5409 10.145 12.1346 10.5513C11.7283 10.9576 11.5 11.5087 11.5 12.0834C11.5 12.658 11.7283 13.2091 12.1346 13.6154C12.5409 14.0218 13.092 14.25 13.6667 14.25H16.8333C17.9384 14.25 18.9982 14.689 19.7796 15.4704C20.561 16.2518 21 17.3116 21 18.4167C21 19.5218 20.561 20.5816 19.7796 21.363C18.9982 22.1444 17.9384 22.5834 16.8333 22.5834H16.25V24.75C16.25 25.3023 15.8023 25.75 15.25 25.75C14.6977 25.75 14.25 25.3023 14.25 24.75V22.5834H13.6823C12.9332 22.6054 12.1919 22.4249 11.5366 22.0608C10.876 21.6938 10.3277 21.1541 9.95031 20.4995C9.67448 20.021 9.83876 19.4095 10.3172 19.1337C10.7957 18.8579 11.4072 19.0221 11.683 19.5006C11.8793 19.841 12.1644 20.1217 12.5079 20.3125C12.8514 20.5033 13.2403 20.5972 13.633 20.5839C13.6442 20.5836 13.6554 20.5834 13.6667 20.5834H15.2405C15.2437 20.5833 15.2468 20.5833 15.25 20.5833C15.2532 20.5833 15.2563 20.5833 15.2595 20.5834H16.8333C17.408 20.5834 17.9591 20.3551 18.3654 19.9488C18.7717 19.5424 19 18.9913 19 18.4167C19 17.8421 18.7717 17.291 18.3654 16.8846C17.9591 16.4783 17.408 16.25 16.8333 16.25H13.6667C12.5616 16.25 11.5018 15.8111 10.7204 15.0297C9.93899 14.2483 9.5 13.1884 9.5 12.0834C9.5 10.9783 9.93899 9.9185 10.7204 9.1371C11.5018 8.3557 12.5616 7.91671 13.6667 7.91671H14.25V5.75C14.25 5.19772 14.6977 4.75 15.25 4.75C15.8023 4.75 16.25 5.19772 16.25 5.75V7.91671H16.8177Z" fill="url(#paint0_linear)"/>
<defs>
<linearGradient id="paint0_linear" x1="-1.14375" y1="-0.762499" x2="30.5" y2="32.025" gradientUnits="userSpaceOnUse">
<stop stop-color="#0FF3AD"/>
<stop offset="0.649439" stop-color="#16AAFE"/>
<stop offset="1" stop-color="#365CFE"/>
</linearGradient>
</defs>
</svg>
