<svg width="147" height="30" viewBox="0 0 147 30" fill="none" xmlns="http://www.w3.org/2000/svg">
<path d="M130.389 15.099C129.65 14.6041 128.835 14.2521 128.063 13.8122C127.563 13.5262 127.031 13.2732 126.596 12.9103C125.857 12.2943 126.009 11.0845 126.781 10.5565C127.889 9.80861 129.726 10.2266 129.922 11.7554C129.922 11.7884 129.954 11.8104 129.987 11.8104H131.66C131.704 11.8104 131.736 11.7774 131.726 11.7334C131.639 10.6775 131.237 9.79761 130.498 9.23668C129.791 8.69774 128.987 8.41177 128.128 8.41177C123.705 8.41177 123.303 13.1522 125.683 14.6481C125.955 14.824 128.291 16.0119 129.117 16.5288C129.943 17.0458 130.204 17.9917 129.845 18.7396C129.519 19.4215 128.672 19.8945 127.824 19.8395C126.9 19.7845 126.183 19.2785 125.933 18.4866C125.889 18.3436 125.868 18.0687 125.868 17.9477C125.868 17.9147 125.835 17.8817 125.803 17.8817H123.988C123.955 17.8817 123.922 17.9147 123.922 17.9477C123.922 19.2785 124.248 20.0154 125.14 20.6864C125.976 21.3243 126.889 21.5883 127.835 21.5883C130.313 21.5883 131.595 20.1694 131.856 18.6956C132.084 17.2548 131.66 15.9569 130.389 15.099Z" fill="white"/>
<path d="M51.5837 8.65375H50.7795H49.8992C49.8666 8.65375 49.8449 8.67575 49.834 8.69774L48.3451 13.6692C48.3233 13.7352 48.2364 13.7352 48.2147 13.6692L46.7257 8.69774C46.7149 8.66475 46.6931 8.65375 46.6605 8.65375H45.7802H44.976H43.8892C43.8566 8.65375 43.824 8.68674 43.824 8.71974V21.4123C43.824 21.4453 43.8566 21.4783 43.8892 21.4783H45.7041C45.7367 21.4783 45.7693 21.4453 45.7693 21.4123V11.7664C45.7693 11.6894 45.878 11.6784 45.8998 11.7444L47.3996 16.7488L47.5082 17.1008C47.5191 17.1338 47.5408 17.1448 47.5734 17.1448H48.9645C48.9972 17.1448 49.0189 17.1228 49.0298 17.1008L49.1384 16.7488L50.6382 11.7444C50.66 11.6674 50.7686 11.6894 50.7686 11.7664V21.4123C50.7686 21.4453 50.8012 21.4783 50.8338 21.4783H52.6488C52.6814 21.4783 52.714 21.4453 52.714 21.4123V8.71974C52.714 8.68674 52.6814 8.65375 52.6488 8.65375H51.5837Z" fill="white"/>
<path d="M102.598 8.65375C102.565 8.65375 102.544 8.67575 102.533 8.69774L101.044 13.6692C101.022 13.7352 100.935 13.7352 100.914 13.6692L99.4246 8.69774C99.4137 8.66475 99.392 8.65375 99.3594 8.65375H96.5989C96.5663 8.65375 96.5337 8.68674 96.5337 8.71974V21.4123C96.5337 21.4453 96.5663 21.4783 96.5989 21.4783H98.4139C98.4465 21.4783 98.4791 21.4453 98.4791 21.4123V11.7664C98.4791 11.6894 98.5877 11.6784 98.6095 11.7444L100.109 16.7488L100.218 17.1008C100.229 17.1338 100.251 17.1448 100.283 17.1448H101.674C101.707 17.1448 101.729 17.1228 101.739 17.1008L101.848 16.7488L103.348 11.7444C103.37 11.6674 103.478 11.6894 103.478 11.7664V21.4123C103.478 21.4453 103.511 21.4783 103.544 21.4783H105.359C105.391 21.4783 105.424 21.4453 105.424 21.4123V8.71974C105.424 8.68674 105.391 8.65375 105.359 8.65375H102.598Z" fill="white"/>
<path d="M79.1887 8.65375H75.8087H73.9937H70.6138C70.5812 8.65375 70.5486 8.68674 70.5486 8.71974V10.3036C70.5486 10.3366 70.5812 10.3696 70.6138 10.3696H73.9285V21.4123C73.9285 21.4453 73.9611 21.4783 73.9937 21.4783H75.8087C75.8413 21.4783 75.8739 21.4453 75.8739 21.4123V10.3696H79.1887C79.2213 10.3696 79.2539 10.3366 79.2539 10.3036V8.71974C79.2539 8.68674 79.2321 8.65375 79.1887 8.65375Z" fill="white"/>
<path d="M89.8934 21.4782H91.5454C91.5888 21.4782 91.6215 21.4342 91.6106 21.3902L88.198 8.65367C88.1871 8.62068 88.1654 8.60968 88.1328 8.60968H87.5025H86.3939H85.7636C85.731 8.60968 85.7092 8.63168 85.6984 8.65367L82.2858 21.3902C82.2749 21.4342 82.3075 21.4782 82.351 21.4782H84.0029C84.0356 21.4782 84.0573 21.4562 84.0682 21.4342L85.0572 17.7276C85.068 17.6946 85.0898 17.6836 85.1224 17.6836H88.774C88.8066 17.6836 88.8284 17.7056 88.8392 17.7276L89.8282 21.4342C89.8391 21.4562 89.8717 21.4782 89.8934 21.4782ZM85.5571 15.8688L86.883 10.9084C86.9047 10.8424 86.9917 10.8424 87.0134 10.9084L88.3393 15.8688C88.3502 15.9128 88.3176 15.9568 88.2741 15.9568H85.6223C85.5788 15.9568 85.5462 15.9128 85.5571 15.8688Z" fill="white"/>
<path d="M118.064 21.4782H119.716C119.759 21.4782 119.792 21.4342 119.781 21.3902L116.369 8.65367C116.358 8.62068 116.336 8.60968 116.303 8.60968H115.673H114.565H113.934C113.902 8.60968 113.88 8.63168 113.869 8.65367L110.456 21.3902C110.446 21.4342 110.478 21.4782 110.522 21.4782H112.174C112.206 21.4782 112.228 21.4562 112.239 21.4342L113.228 17.7276C113.239 17.6946 113.26 17.6836 113.293 17.6836H116.945C116.977 17.6836 116.999 17.7056 117.01 17.7276L117.999 21.4342C118.01 21.4562 118.031 21.4782 118.064 21.4782ZM113.728 15.8688L115.054 10.9084C115.075 10.8424 115.162 10.8424 115.184 10.9084L116.51 15.8688C116.521 15.9128 116.488 15.9568 116.445 15.9568H113.793C113.749 15.9568 113.717 15.9128 113.728 15.8688Z" fill="white"/>
<path d="M60.0823 19.5975V15.6599C60.0823 15.6269 60.1149 15.5939 60.1475 15.5939H64.9838C65.0164 15.5939 65.049 15.5609 65.049 15.5279V13.9441C65.049 13.9111 65.0164 13.8781 64.9838 13.8781H60.1475C60.1149 13.8781 60.0823 13.8451 60.0823 13.8121V10.4465C60.0823 10.4135 60.1149 10.3805 60.1475 10.3805H65.6468C65.6794 10.3805 65.712 10.3475 65.712 10.3145V8.7307C65.712 8.6977 65.6794 8.6647 65.6468 8.6647H60.0823H58.2022C58.1696 8.6647 58.137 8.6977 58.137 8.7307V10.3805V13.8891V15.6049V19.6744V21.4122C58.137 21.4452 58.1696 21.4782 58.2022 21.4782H60.0823H65.875C65.9076 21.4782 65.9402 21.4452 65.9402 21.4122V19.7404C65.9402 19.7074 65.9076 19.6744 65.875 19.6744H60.1367C60.1041 19.6634 60.0823 19.6415 60.0823 19.5975Z" fill="white"/>
<path d="M146.973 21.3682L140.691 14.802C140.669 14.78 140.669 14.736 140.691 14.714L146.342 8.77469C146.386 8.7307 146.353 8.6647 146.299 8.6647H143.984C143.962 8.6647 143.951 8.6757 143.941 8.6867L139.148 13.7241C139.104 13.7681 139.039 13.7351 139.039 13.6801V8.7307C139.039 8.6977 139.007 8.6647 138.974 8.6647H137.159C137.126 8.6647 137.094 8.6977 137.094 8.7307V21.4232C137.094 21.4562 137.126 21.4892 137.159 21.4892H138.974C139.007 21.4892 139.039 21.4562 139.039 21.4232V15.8359C139.039 15.7809 139.115 15.7479 139.148 15.7919L144.582 21.4672C144.593 21.4782 144.614 21.4892 144.625 21.4892H146.94C146.984 21.4782 147.016 21.4012 146.973 21.3682Z" fill="white"/>
<path d="M29.1699 1L17.6021 9.75299L19.7412 4.58885L29.1699 1Z" fill="#E2761B" stroke="#E2761B" stroke-width="0.116924" stroke-linecap="round" stroke-linejoin="round"/>
<path d="M2.46655 1L13.9414 9.83591L11.9068 4.58885L2.46655 1Z" fill="#E4761B" stroke="#E4761B" stroke-width="0.116924" stroke-linecap="round" stroke-linejoin="round"/>
<path d="M25.0069 21.2894L21.926 26.0981L28.5181 27.9459L30.413 21.3959L25.0069 21.2894Z" fill="#E4761B" stroke="#E4761B" stroke-width="0.116924" stroke-linecap="round" stroke-linejoin="round"/>
<path d="M1.24268 21.3959L3.12609 27.9459L9.71803 26.0981L6.63714 21.2894L1.24268 21.3959Z" fill="#E4761B" stroke="#E4761B" stroke-width="0.116924" stroke-linecap="round" stroke-linejoin="round"/>
<path d="M9.34814 13.1642L7.51123 15.995L14.0567 16.2911L13.8241 9.12521L9.34814 13.1642Z" fill="#E4761B" stroke="#E4761B" stroke-width="0.116924" stroke-linecap="round" stroke-linejoin="round"/>
<path d="M22.2873 13.1641L17.7532 9.04221L17.6021 16.291L24.1358 15.9949L22.2873 13.1641Z" fill="#E4761B" stroke="#E4761B" stroke-width="0.116924" stroke-linecap="round" stroke-linejoin="round"/>
<path d="M9.71997 26.0982L13.6496 24.1439L10.2548 21.4434L9.71997 26.0982Z" fill="#E4761B" stroke="#E4761B" stroke-width="0.116924" stroke-linecap="round" stroke-linejoin="round"/>
<path d="M17.9863 24.1439L21.9275 26.0982L21.3811 21.4434L17.9863 24.1439Z" fill="#E4761B" stroke="#E4761B" stroke-width="0.116924" stroke-linecap="round" stroke-linejoin="round"/>
<path d="M21.9275 26.0982L17.9863 24.1439L18.3002 26.7615L18.2653 27.863L21.9275 26.0982Z" fill="#D7C1B3" stroke="#D7C1B3" stroke-width="0.116924" stroke-linecap="round" stroke-linejoin="round"/>
<path d="M9.71997 26.0982L13.3822 27.863L13.3589 26.7615L13.6496 24.1439L9.71997 26.0982Z" fill="#D7C1B3" stroke="#D7C1B3" stroke-width="0.116924" stroke-linecap="round" stroke-linejoin="round"/>
<path d="M13.4402 19.7141L10.1616 18.731L12.4752 17.6531L13.4402 19.7141Z" fill="#233447" stroke="#233447" stroke-width="0.116924" stroke-linecap="round" stroke-linejoin="round"/>
<path d="M18.1943 19.7141L19.1593 17.6531L21.4845 18.731L18.1943 19.7141Z" fill="#233447" stroke="#233447" stroke-width="0.116924" stroke-linecap="round" stroke-linejoin="round"/>
<path d="M9.7181 26.0981L10.2761 21.2894L6.63721 21.3959L9.7181 26.0981Z" fill="#CD6116" stroke="#CD6116" stroke-width="0.116924" stroke-linecap="round" stroke-linejoin="round"/>
<path d="M21.3682 21.2894L21.9262 26.0981L25.0071 21.3959L21.3682 21.2894Z" fill="#CD6116" stroke="#CD6116" stroke-width="0.116924" stroke-linecap="round" stroke-linejoin="round"/>
<path d="M24.1358 15.9948L17.6021 16.291L18.2066 19.714L19.1716 17.653L21.4967 18.7308L24.1358 15.9948Z" fill="#CD6116" stroke="#CD6116" stroke-width="0.116924" stroke-linecap="round" stroke-linejoin="round"/>
<path d="M10.162 18.7308L12.4872 17.653L13.4404 19.714L14.0566 16.291L7.51123 15.9948L10.162 18.7308Z" fill="#CD6116" stroke="#CD6116" stroke-width="0.116924" stroke-linecap="round" stroke-linejoin="round"/>
<path d="M7.51123 15.9948L10.255 21.4432L10.162 18.7308L7.51123 15.9948Z" fill="#E4751F" stroke="#E4751F" stroke-width="0.116924" stroke-linecap="round" stroke-linejoin="round"/>
<path d="M21.4976 18.7308L21.3813 21.4432L24.1367 15.9948L21.4976 18.7308Z" fill="#E4751F" stroke="#E4751F" stroke-width="0.116924" stroke-linecap="round" stroke-linejoin="round"/>
<path d="M14.0554 16.291L13.4392 19.714L14.2065 23.7529L14.3809 18.4348L14.0554 16.291Z" fill="#E4751F" stroke="#E4751F" stroke-width="0.116924" stroke-linecap="round" stroke-linejoin="round"/>
<path d="M17.6015 16.291L17.2876 18.4229L17.4271 23.7529L18.206 19.714L17.6015 16.291Z" fill="#E4751F" stroke="#E4751F" stroke-width="0.116924" stroke-linecap="round" stroke-linejoin="round"/>
<path d="M18.2064 19.7141L17.4275 23.753L17.9856 24.1439L21.3804 21.4433L21.4966 18.731L18.2064 19.7141Z" fill="#F6851B" stroke="#F6851B" stroke-width="0.116924" stroke-linecap="round" stroke-linejoin="round"/>
<path d="M10.1616 18.731L10.2546 21.4433L13.6495 24.1439L14.2075 23.753L13.4402 19.7141L10.1616 18.731Z" fill="#F6851B" stroke="#F6851B" stroke-width="0.116924" stroke-linecap="round" stroke-linejoin="round"/>
<path d="M18.2651 27.8629L18.3 26.7614L18.0093 26.5008H13.6263L13.3589 26.7614L13.3822 27.8629L9.71997 26.0981L10.9988 27.164L13.5914 29H18.0441L20.6484 27.164L21.9273 26.0981L18.2651 27.8629Z" fill="#C0AD9E" stroke="#C0AD9E" stroke-width="0.116924" stroke-linecap="round" stroke-linejoin="round"/>
<path d="M17.9848 24.144L17.4268 23.7531H14.2064L13.6483 24.144L13.3577 26.7615L13.625 26.501H18.0081L18.2987 26.7615L17.9848 24.144Z" fill="#161616" stroke="#161616" stroke-width="0.116924" stroke-linecap="round" stroke-linejoin="round"/>
<path d="M29.6588 10.3215L30.6471 5.48902L29.1705 1L17.9863 9.45689L22.2879 13.1642L28.3684 14.9763L29.717 13.3773L29.1357 12.951L30.0658 12.0864L29.3449 11.5178L30.275 10.7953L29.6588 10.3215Z" fill="#763D16" stroke="#763D16" stroke-width="0.116924" stroke-linecap="round" stroke-linejoin="round"/>
<path d="M1 5.48902L1.98821 10.3215L1.36041 10.7953L2.29048 11.5178L1.5813 12.0864L2.51138 12.951L1.93008 13.3773L3.26707 14.9763L9.34747 13.1642L13.6491 9.45689L2.46488 1L1 5.48902Z" fill="#763D16" stroke="#763D16" stroke-width="0.116924" stroke-linecap="round" stroke-linejoin="round"/>
<path d="M28.3686 14.9764L22.2882 13.1642L24.1367 15.995L21.3813 21.4434L25.0086 21.396H30.4147L28.3686 14.9764Z" fill="#F6851B" stroke="#F6851B" stroke-width="0.116924" stroke-linecap="round" stroke-linejoin="round"/>
<path d="M9.346 13.1642L3.2656 14.9764L1.24268 21.396H6.63714L10.2528 21.4434L7.5091 15.995L9.346 13.1642Z" fill="#F6851B" stroke="#F6851B" stroke-width="0.116924" stroke-linecap="round" stroke-linejoin="round"/>
<path d="M17.602 16.2911L17.9857 9.45688L19.7528 4.58884H11.9053L13.6492 9.45688L14.0561 16.2911L14.1956 18.4467L14.2072 23.753H17.4276L17.4509 18.4467L17.602 16.2911Z" fill="#F6851B" stroke="#F6851B" stroke-width="0.116924" stroke-linecap="round" stroke-linejoin="round"/>
</svg>
